<svg version="1.2" xmlns="http://www.w3.org/2000/svg" viewBox="0 0 321 68" width="321" height="68"><style>.s0{fill:#ffffff}</style><path fill-rule="evenodd" class="s0" d="m251.8 62c-6.6 0.5-13.6-0.9-20.2-4.8c-3.2-2-4.6-4.6-4.6-8.3c0-4.2-0.2-4.3-4.3-2.8c-3 1.2-5.9 2.8-9 3.6c-0.9 0.2-2 0.9-2.6-0.4c-0.5-1 0.5-1.6 1.1-2.2c5.7-6 12.3-10.9 19.2-15.4c8.7-5.6 17.1-11.5 26.2-16.5c5-2.7 10.2-4.7 15.6-6.3c1.2-0.3 2.6-0.8 3.6 0.2c1.1 1.1-0.1 2.3-0.5 3.4c-1.8 5.1-6.4 7.2-10.6 9.5c-8.4 4.6-17.4 8-26.8 10.1c-1.9 0.4-3.6 1.2-5.2 2.1c-1.5 0.9-4.1 1.6-0.9 3.8c1.1 0.8 0.3 2-0.4 3c-5.9 8.1 0.5 14.9 7.2 17c8.6 2.7 17.3 1.9 25.9 0.3c10.8-2 21.3-5 31.3-9.7c5.1-2.4 9.9-5.3 14-9.1c0.7-0.7 1.5-2.3 2.6-1.1c1 1.1-0.6 1.9-1.2 2.7c-5.4 6.1-12.6 9.1-19.8 12.4c-9.8 4.2-29 8.5-40.6 8.5zm19.5-47.1c0.1-1.3-0.9-1.9-2.8-1.2c-6.4 2.4-12.6 5.2-18.2 9.3c-0.8 0.6-2.4 1.3-1.5 2.5c0.6 0.9 2.1 0.3 3.1-0.1c6-2.2 11.5-5.3 17.2-8.2c1-0.5 1.9-1.2 2.2-2.3z" /><path class="s0" d="m129.5 47.8c1.6 1.6 3.4 1.8 5.5 0.9c4.3-1.7 8.3-3.9 12.3-6.3c3.3-2.1 6.9-3.3 10.9-3.2c0.8 0 1.9 0 1.9 1.2c0 1-1 1-1.7 1.1c-5.3 0.5-9.5 3.4-13.9 6c-1.2 0.7-2.8 1.7-2.2 3.5c0.6 1.8 2.4 1.6 3.9 1.5c6.7-0.5 12.9-2.1 17.8-7.2c3.1-3.2 7.1-5 11.4-5.9c0.9-0.2 2.1-0.4 2.7 0.7c0.6 1.2-0.5 1.8-1.2 2.4c-2.1 2-4.7 3.4-7.3 4.5c-1.6 0.7-2.2 1.6-1.9 3.1c0.2 1.6 1.6 1.9 2.9 1.7c4.7-0.9 9.4-1.5 14-3.2c4.8-1.7 9.9-4.1 16-3.8c-4.7 5.3-11.1 4.8-16.3 7c-4.6 2-9.6 2.2-14.5 3.1c-2.1 0.3-4.1 0.1-5.8-1c-2.8-1.9-5.7-1.6-8.6-0.5c-3.8 1.4-7.7 1.9-11.8 1.6c-1.7-0.1-3.8-0.2-4.6-1.9c-1.4-3-3.6-2.2-5.6-1.4c-2.7 1.1-5.4 1.4-8 0.3c-3-1.3-5.8-0.8-8.6 0.5c-2.6 1.2-5.2 1.5-7.9 0c-2.2-1.2-4.3-0.6-6.4 0.5c-2.5 1.3-5 2.3-7.9 2.1c-1.5-0.1-2.8-0.3-3.3-1.9c-0.5-1.5 0.2-2.6 1.5-3.5c2.6-1.9 5.3-3.7 7.9-5.6c0.8-0.6 2.1-1.1 1.6-2.2c-0.7-1.5-2-0.4-2.9 0.1c-4.5 2.7-8.8 5.6-13.3 8.4c-2.8 1.7-5.6 3.2-8.4 4.8c-0.8 0.4-1.8 0.9-2.3 0c-0.4-0.7 0.5-1.3 1.1-1.7c8.6-4.5 15.5-11.7 24.6-15.5c2.3-1 5.1-2.2 6.5-0.1c1.3 1.9-0.9 4.4-2.5 6c-2.2 2-4.7 3.6-7.1 5.4c-0.9 0.6-2.3 1.1-1.6 2.5c0.7 1.4 2 0.4 2.9 0.1c5.6-2.1 10.9-5 15.8-8.4c0.9-0.6 1.8-1.3 2.8-1.9c1.1-0.7 2.5-1.3 3.3 0c0.7 1.2-0.7 2-1.5 2.7c-1.4 1.2-2.9 2.4-4.4 3.5c-0.6 0.5-1.4 0.8-1.1 1.7c0.4 1 1.4 0.9 2.3 0.8c1.9-0.2 3.5-1.3 5.1-2.3c3.7-2.4 7.5-4.9 11.3-7.3c0.9-0.5 2.1-1.7 3-0.6c1.2 1.4-0.7 2.1-1.4 2.9c-1.9 1.5-4.4 2.3-5 4.8c0.1 0.1 0.2 0.2 0.2 0.2z" /><path fill-rule="evenodd" class="s0" d="m113.1 22.1c-4.5 1.2-8.9 2.5-13.5 3.5c-3.6 0.7-6.9 1.9-10.2 3.4c-1.7 0.8-3.6 1.9-3.7 3.9c-0.7 7.2-5.4 12-10.5 15.6c-8 5.7-17 9.8-27.4 9.6c-0.1 0-0.3 0-0.4 0c-2.4-0.3-5.4 0-6.4-2.8c-1-2.8 1.1-4.9 3.1-6.7c7.1-6.3 15.5-10.3 24.1-14c2.2-0.9 4.2-2.2 6.6-2.6c1-0.2 1.9-0.9 1.7-2.1c-0.2-1.1-1.3-0.9-2.2-1c-4.1-0.3-7.9 1.2-11.7 2.3c-13.1 3.7-25.4 9.4-37.7 15c-5.9 2.7-11.9 5.2-17.5 8.5c-0.7 0.4-1.6 1.2-2.2 0c-0.6-1.1 0.2-1.7 1.2-2.3c11.2-6.1 23-10.8 34.5-16.3c12.5-5.9 25.7-10.3 38.6-15.1c1.4-0.5 3.6-2.4 4.5-0.3c0.6 1.6-2.1 1.9-3.4 2.6c-1 0.5-2.5 0.5-2.4 1.9c0 1.7 1.7 0.9 2.6 1.3c5.3 2.2 9.8-0.7 14.3-2.3c5.8-1.8 11.7-2.8 18-2.1zm-63.6 34.4c0.5-0.1 1.7-0.3 3-0.5c6.4-1 12-4.1 17.5-7.1c5.2-2.9 9-7.7 12.1-12.9c0.6-0.9 1.4-2.4 0.2-3.4c-1-0.8-2.4-0.4-3.6 0.1q-3.9 1.8-7.8 3.6c-8.6 4.1-17.8 7.4-24.5 14.6c-1.1 1.1-2.8 2.1-1.9 4.1c0.9 1.8 2.7 1.4 5 1.5z" /><path class="s0" d="m299.9 43.6c-5.9 1.8-13.1 3.4-17.7-0.4c-4.4-3.7-7-1.6-10.6-0.8c-4.9 1.1-10.2 3.3-14.9 0.7c-4-2.2-7.7-2.6-11.9-1.5c-1 0.3-2.5 0.2-2.6-1.3c-0.1-1.6 1.3-1.5 2.4-1.7c4.7-0.6 9.1-1.8 12.9-5.1c3.2-2.7 6.9-5 11-6.2c1.2-0.3 2.4-0.5 3.7-0.6c0.9-0.1 1.9-0.1 2.2 1c0.3 1-0.6 1.6-1.3 2c-4.2 2.5-8.1 5.5-12.7 7.1c-1.4 0.5-3.3 1.1-3 2.8c0.3 2 2.5 1.3 3.8 1.2c8.5-0.6 16.9-1.6 23.1-8.6c2.7-3 6.6-3.9 10.4-4.7c1-0.2 2.1-0.1 2.6 1c0.5 1.2-0.3 1.9-1.1 2.5c-2.8 2.1-5.7 4-9 5.2c-1.6 0.6-3.5 1.6-3.2 3.6c0.3 2.3 2.4 2.5 4.4 2.5q5.9 0 11.7 0c-0.1 0.4-0.1 0.8-0.2 1.3z" /></svg>